<svg id="visual" viewBox="0 0 1900 940" width="1900" height="940" xmlns="http://www.w3.org/2000/svg" xmlns:xlink="http://www.w3.org/1999/xlink" version="1.1"><rect x="0" y="0" width="1900" height="940" fill="#001220"></rect><defs><linearGradient id="grad1_0" x1="50.5%" y1="0%" x2="100%" y2="100%"><stop offset="9.574468085106378%" stop-color="#03498a" stop-opacity="1"></stop><stop offset="90.42553191489363%" stop-color="#03498a" stop-opacity="1"></stop></linearGradient></defs><defs><linearGradient id="grad1_1" x1="50.5%" y1="0%" x2="100%" y2="100%"><stop offset="9.574468085106378%" stop-color="#03498a" stop-opacity="1"></stop><stop offset="90.42553191489363%" stop-color="#002e52" stop-opacity="1"></stop></linearGradient></defs><defs><linearGradient id="grad1_2" x1="50.5%" y1="0%" x2="100%" y2="100%"><stop offset="9.574468085106378%" stop-color="#001220" stop-opacity="1"></stop><stop offset="90.42553191489363%" stop-color="#002e52" stop-opacity="1"></stop></linearGradient></defs><defs><linearGradient id="grad2_0" x1="0%" y1="0%" x2="49.5%" y2="100%"><stop offset="9.574468085106378%" stop-color="#03498a" stop-opacity="1"></stop><stop offset="90.42553191489363%" stop-color="#03498a" stop-opacity="1"></stop></linearGradient></defs><defs><linearGradient id="grad2_1" x1="0%" y1="0%" x2="49.5%" y2="100%"><stop offset="9.574468085106378%" stop-color="#002e52" stop-opacity="1"></stop><stop offset="90.42553191489363%" stop-color="#03498a" stop-opacity="1"></stop></linearGradient></defs><defs><linearGradient id="grad2_2" x1="0%" y1="0%" x2="49.5%" y2="100%"><stop offset="9.574468085106378%" stop-color="#002e52" stop-opacity="1"></stop><stop offset="90.42553191489363%" stop-color="#001220" stop-opacity="1"></stop></linearGradient></defs><g transform="translate(1900, 0)"><path d="M0 705C-94.3 698.3 -188.7 691.6 -269.8 651.3C-350.9 611.1 -418.8 537.3 -461.7 461.7C-504.7 386.2 -522.6 308.8 -558.9 231.5C-595.3 154.3 -650.2 77.1 -705 0L0 0Z" fill="#002038"></path><path d="M0 470C-62.9 465.5 -125.8 461.1 -179.9 434.2C-233.9 407.4 -279.2 358.2 -307.8 307.8C-336.4 257.4 -348.4 205.9 -372.6 154.3C-396.9 102.8 -433.4 51.4 -470 0L0 0Z" fill="#003b6e"></path><path d="M0 235C-31.4 232.8 -62.9 230.5 -89.9 217.1C-117 203.7 -139.6 179.1 -153.9 153.9C-168.2 128.7 -174.2 102.9 -186.3 77.2C-198.4 51.4 -216.7 25.7 -235 0L0 0Z" fill="#03498a"></path></g><g transform="translate(0, 940)"><path d="M0 -705C94.4 -691.4 188.7 -677.9 263.3 -635.6C337.9 -593.4 392.7 -522.4 460.3 -460.3C528 -398.2 608.4 -345 651.3 -269.8C694.3 -194.6 699.6 -97.3 705 0L0 0Z" fill="#002038"></path><path d="M0 -470C62.9 -461 125.8 -451.9 175.5 -423.8C225.2 -395.6 261.8 -348.3 306.9 -306.9C352 -265.5 405.6 -230 434.2 -179.9C462.8 -129.7 466.4 -64.9 470 0L0 0Z" fill="#003b6e"></path><path d="M0 -235C31.5 -230.5 62.9 -226 87.8 -211.9C112.6 -197.8 130.9 -174.1 153.4 -153.4C176 -132.7 202.8 -115 217.1 -89.9C231.4 -64.9 233.2 -32.4 235 0L0 0Z" fill="#03498a"></path></g></svg>